<?xml version="1.0" standalone="no"?>
<!DOCTYPE svg PUBLIC "-//W3C//DTD SVG 20010904//EN"
 "http://www.w3.org/TR/2001/REC-SVG-20010904/DTD/svg10.dtd">
<svg version="1.0" xmlns="http://www.w3.org/2000/svg"
 width="512.000000pt" height="512.000000pt" viewBox="0 0 512.000000 512.000000"
 preserveAspectRatio="xMidYMid meet">
<metadata>
Created by potrace 1.16, written by Peter Selinger 2001-2019
</metadata>
<g transform="translate(0.000000,512.000000) scale(0.100000,-0.100000)"
fill="#000000" stroke="none">
<path d="M0 2815 l0 -1625 980 0 980 0 0 -165 0 -165 -300 0 -300 0 0 -90 0
-90 1285 0 1285 0 0 90 0 90 -385 0 -385 0 0 165 0 165 980 0 980 0 0 1625 0
1625 -2560 0 -2560 0 0 -1625z m4940 0 l0 -1445 -2380 0 -2380 0 0 1445 0
1445 2380 0 2380 0 0 -1445z m-1960 -1790 l0 -165 -420 0 -420 0 0 165 0 165
420 0 420 0 0 -165z"/>
</g>
</svg>
