<?xml version="1.0" encoding="UTF-8" standalone="no"?>
<svg
   xmlns:dc="http://purl.org/dc/elements/1.1/"
   xmlns:cc="http://creativecommons.org/ns#"
   xmlns:rdf="http://www.w3.org/1999/02/22-rdf-syntax-ns#"
   xmlns:svg="http://www.w3.org/2000/svg"
   xmlns="http://www.w3.org/2000/svg"
   viewBox="0 0 491.51999 175.36"
   height="175.36"
   width="491.51999"
   xml:space="preserve"
   id="svg2"
   version="1.1"><metadata
     id="metadata8"><rdf:RDF><cc:Work
         rdf:about=""><dc:format>image/svg+xml</dc:format><dc:type
           rdf:resource="http://purl.org/dc/dcmitype/StillImage" /></cc:Work></rdf:RDF></metadata><defs
     id="defs6" /><g
     transform="matrix(1.3333333,0,0,-1.3333333,0,175.36)"
     id="g10"><g
       transform="scale(0.1)"
       id="g12"><path
         id="path14"
         style="fill:#100f0d;fill-opacity:1;fill-rule:nonzero;stroke:none"
         d="M 3532.81,1200 H 153.598 c -10.496,0 -20.086,-4.34 -27.075,-11.32 -6.984,-6.98 -11.324,-16.58 -11.324,-27.08 V 441.594 c 0,-89.699 36.742,-171.285 95.93,-230.473 59.184,-59.18 140.773,-95.922 230.473,-95.922 H 3244.8 c 89.7,0 171.29,36.742 230.48,95.922 59.18,59.188 95.93,140.774 95.93,230.473 V 1161.6 c 0,10.5 -4.35,20.1 -11.33,27.08 -6.98,6.98 -16.58,11.32 -27.07,11.32 z M 153.598,1315.2 H 3532.81 c 42.29,0 80.71,-17.27 108.51,-45.07 27.82,-27.81 45.08,-66.23 45.08,-108.53 V 441.594 C 3686.4,320.098 3636.73,209.68 3556.72,129.68 3476.72,49.6719 3366.3,0 3244.8,0 H 441.602 C 320.102,0 209.684,49.6719 129.68,129.68 49.668,209.68 0,320.098 0,441.594 V 1161.6 c 0,42.3 17.2656,80.72 45.0742,108.53 27.8125,27.8 66.2268,45.07 108.5238,45.07 v 0" /><path
         id="path16"
         style="fill:#100f0d;fill-opacity:1;fill-rule:nonzero;stroke:none"
         d="M 614.398,115.199 H 3072.01 V 240 c 0,10.5 -4.35,20.09 -11.33,27.07 -6.99,6.989 -16.58,11.328 -27.08,11.328 H 652.805 c -10.504,0 -20.094,-4.339 -27.082,-11.328 C 618.738,260.09 614.398,250.5 614.398,240 Z M 3129.6,0 H 556.801 C 524.988,0 499.199,25.7891 499.199,57.6016 V 240 c 0,42.301 17.266,80.715 45.074,108.523 27.813,27.805 66.223,45.079 108.532,45.079 H 3033.6 c 42.3,0 80.72,-17.274 108.53,-45.079 27.81,-27.808 45.07,-66.222 45.07,-108.523 V 57.6016 C 3187.2,25.7891 3161.41,0 3129.6,0 v 0" /><path
         id="path18"
         style="fill:#100f0d;fill-opacity:1;fill-rule:evenodd;stroke:none"
         d="m 417.602,1101.27 c 41.617,0 75.359,-33.73 75.359,-75.36 0,-41.613 -33.742,-75.355 -75.359,-75.355 -41.622,0 -75.36,33.742 -75.36,75.355 0,41.63 33.738,75.36 75.36,75.36" /><path
         id="path20"
         style="fill:#100f0d;fill-opacity:1;fill-rule:evenodd;stroke:none"
         d="m 417.602,860.156 c 41.617,0 75.359,-33.738 75.359,-75.359 0,-41.617 -33.742,-75.359 -75.359,-75.359 -41.622,0 -75.36,33.742 -75.36,75.359 0,41.621 33.738,75.359 75.36,75.359" /><path
         id="path22"
         style="fill:#100f0d;fill-opacity:1;fill-rule:evenodd;stroke:none"
         d="m 417.602,619.031 c 41.617,0 75.359,-33.726 75.359,-75.351 0,-41.621 -33.742,-75.36 -75.359,-75.36 -41.622,0 -75.36,33.739 -75.36,75.36 0,41.625 33.738,75.351 75.36,75.351" /><path
         id="path24"
         style="fill:#100f0d;fill-opacity:1;fill-rule:nonzero;stroke:none"
         d="m 1566.9,623.176 c -31.81,0 -57.6,-25.793 -57.6,-57.602 0,-31.812 25.79,-57.597 57.6,-57.597 h 552.6 c 31.81,0 57.6,25.785 57.6,57.597 0,31.809 -25.79,57.602 -57.6,57.602 h -552.6" /></g></g></svg>