<?xml version="1.0" encoding="UTF-8" standalone="no"?>
<svg
   xmlns:dc="http://purl.org/dc/elements/1.1/"
   xmlns:cc="http://creativecommons.org/ns#"
   xmlns:rdf="http://www.w3.org/1999/02/22-rdf-syntax-ns#"
   xmlns:svg="http://www.w3.org/2000/svg"
   xmlns="http://www.w3.org/2000/svg"
   viewBox="0 0 1600 1600"
   height="1600"
   width="1600"
   xml:space="preserve"
   id="svg2"
   version="1.1"><metadata
     id="metadata8"><rdf:RDF><cc:Work
         rdf:about=""><dc:format>image/svg+xml</dc:format><dc:type
           rdf:resource="http://purl.org/dc/dcmitype/StillImage" /></cc:Work></rdf:RDF></metadata><defs
     id="defs6" /><g
     transform="matrix(1.3333333,0,0,-1.3333333,0,1600)"
     id="g10"><g
       transform="scale(0.1)"
       id="g12"><path
         id="path14"
         style="fill:#11100e;fill-opacity:1;fill-rule:nonzero;stroke:none"
         d="m 7661.56,5288.27 c -78.04,-89.3 -717.55,-841.98 -828.71,-1643.55 H 5053.02 C 4970.37,3973.47 4746.19,4729.36 4334,5215.78 l -6.88,7.72 c -363.97,387.05 -564.42,887.07 -564.42,1407.94 0,1161.48 987.99,2106.42 2202.41,2106.42 1214.41,0 2202.41,-944.94 2202.41,-2106.42 0,-489.94 -179.86,-967.16 -505.96,-1343.17 z m 140.82,3118.33 c -491.19,471.56 -1143.68,731.26 -1837.27,731.26 -693.6,0 -1346.08,-259.7 -1837.27,-731.26 -493.41,-473.69 -765.14,-1104.12 -765.14,-1775.16 0,-621.31 237.65,-1217.01 669.3,-1677.99 458.17,-544.18 664.1,-1538.43 666.12,-1548.34 l 32.4,-160.39 h 2481.74 l 4.46,195.43 c 16.95,742.4 716.26,1550.84 746.52,1585.47 389.68,449.32 604.28,1019.61 604.28,1605.82 0,671.04 -271.73,1301.47 -765.14,1775.16" /><path
         id="path16"
         style="fill:#11100e;fill-opacity:1;fill-rule:nonzero;stroke:none"
         d="m 5934.89,9401.92 c 141.27,0 256.86,118.34 256.86,262.97 v 773.41 c 0,144.7 -115.59,263 -256.86,263 -141.28,0 -256.86,-118.3 -256.86,-263 v -773.41 c 0,-144.63 115.58,-262.97 256.86,-262.97" /><path
         id="path18"
         style="fill:#11100e;fill-opacity:1;fill-rule:nonzero;stroke:none"
         d="m 3079.2,6633 c 0,144.64 -115.59,262.97 -256.87,262.97 H 2066.86 C 1925.59,6895.97 1810,6777.64 1810,6633 c 0,-144.63 115.59,-262.97 256.86,-262.97 h 755.47 c 141.28,0 256.87,118.34 256.87,262.97" /><path
         id="path20"
         style="fill:#11100e;fill-opacity:1;fill-rule:nonzero;stroke:none"
         d="m 9833.13,6895.97 h -755.46 c -141.28,0 -256.87,-118.33 -256.87,-262.97 0,-144.63 115.59,-262.97 256.87,-262.97 h 755.46 c 141.28,0 256.87,118.34 256.87,262.97 0,144.64 -115.59,262.97 -256.87,262.97" /><path
         id="path22"
         style="fill:#11100e;fill-opacity:1;fill-rule:nonzero;stroke:none"
         d="m 8476.83,8031.91 c 79.26,-119.72 239.79,-151.28 356.73,-70.12 l 625.36,433.97 c 116.93,81.15 147.75,245.5 68.49,365.22 -79.27,119.72 -239.8,151.28 -356.75,70.13 l -625.34,-433.97 c -116.93,-81.15 -147.76,-245.5 -68.49,-365.23 v 0" /><path
         id="path24"
         style="fill:#11100e;fill-opacity:1;fill-rule:nonzero;stroke:none"
         d="m 7331.56,9076.03 c 114.59,-84.59 275.95,-57.82 358.57,59.51 l 441.84,627.37 c 82.62,117.31 56.47,282.49 -58.12,367.09 -114.6,84.6 -275.96,57.8 -358.58,-59.5 l -441.84,-627.37 c -82.62,-117.32 -56.47,-282.51 58.13,-367.1" /><path
         id="path26"
         style="fill:#11100e;fill-opacity:1;fill-rule:nonzero;stroke:none"
         d="m 4118.3,8951.7 c 89.82,-111.64 252.52,-127.75 361.57,-35.8 109.05,91.95 124.79,258.53 34.97,370.17 l -480.29,597.01 c -89.82,111.65 -252.52,127.72 -361.58,35.81 -109.04,-91.96 -124.77,-258.53 -34.97,-370.17 l 480.3,-597.02" /><path
         id="path28"
         style="fill:#11100e;fill-opacity:1;fill-rule:nonzero;stroke:none"
         d="m 2417.96,8066.83 689.61,-315.85 c 128.96,-59.07 281.67,0.63 339.37,132.65 v 0 c 57.68,132.02 -0.62,288.37 -129.58,347.43 l -689.6,315.85 c -128.97,59.07 -281.68,-0.62 -339.36,-132.65 h -0.01 c -57.69,-132.02 0.62,-288.37 129.57,-347.43" /><path
         id="path30"
         style="fill:#11100e;fill-opacity:1;fill-rule:nonzero;stroke:none"
         d="m 2998.63,5538.15 -698.84,-293.8 c -130.68,-54.95 -193.7,-209.36 -140.03,-343.16 53.67,-133.79 204.5,-198.3 335.18,-143.36 l 698.85,293.81 c 130.68,54.94 193.69,209.36 140.02,343.15 -53.66,133.79 -204.49,198.31 -335.18,143.36" /><path
         id="path32"
         style="fill:#11100e;fill-opacity:1;fill-rule:nonzero;stroke:none"
         d="m 9699.42,5275.19 -654.24,386.71 c -122.36,72.32 -280.26,29.01 -350.89,-96.25 -70.64,-125.26 -28.33,-286.91 94.02,-359.22 l 654.26,-386.72 c 122.34,-72.33 280.24,-29.01 350.88,96.25 70.63,125.25 28.33,286.91 -94.03,359.23" /><path
         id="path34"
         style="fill:#11100e;fill-opacity:1;fill-rule:nonzero;stroke:none"
         d="M 6966.61,3084.72 H 4948.58 c -142.22,0 -258.58,-117.08 -258.58,-260.18 v -0.01 c 0,-143.09 116.36,-260.17 258.58,-260.17 h 2018.03 c 142.22,0 258.58,117.08 258.58,260.17 v 0.01 c 0,143.1 -116.36,260.18 -258.58,260.18" /><path
         id="path36"
         style="fill:#11100e;fill-opacity:1;fill-rule:nonzero;stroke:none"
         d="m 6724.89,2427.54 h -1534.6 c -142.21,0 -258.58,-117.08 -258.58,-260.18 v 0 c 0,-143.1 116.37,-260.16 258.58,-260.16 h 1534.6 c 142.22,0 258.58,117.06 258.58,260.16 v 0 c 0,143.1 -116.36,260.18 -258.58,260.18" /><path
         id="path38"
         style="fill:#11100e;fill-opacity:1;fill-rule:nonzero;stroke:none"
         d="M 6497.24,1770.4 H 5417.95 c -142.22,0 -258.57,-117.1 -258.57,-260.2 0,-143.1 116.35,-260.2 258.57,-260.2 h 1079.29 c 142.21,0 258.57,117.1 258.57,260.2 0,143.1 -116.36,260.2 -258.57,260.2" /></g></g></svg>