<?xml version="1.0" standalone="no"?>
<!DOCTYPE svg PUBLIC "-//W3C//DTD SVG 20010904//EN"
 "http://www.w3.org/TR/2001/REC-SVG-20010904/DTD/svg10.dtd">
<svg version="1.0" xmlns="http://www.w3.org/2000/svg"
 width="512.000000pt" height="512.000000pt" viewBox="0 0 512.000000 512.000000"
 preserveAspectRatio="xMidYMid meet">
<metadata>
Created by potrace 1.16, written by Peter Selinger 2001-2019
</metadata>
<g transform="translate(0.000000,512.000000) scale(0.100000,-0.100000)"
fill="#000000" stroke="none">
<path d="M1941 5101 c-10 -10 -22 -32 -25 -47 -18 -90 -236 -1577 -236 -1612
0 -30 6 -47 22 -62 21 -19 33 -20 400 -20 l378 0 0 -1440 0 -1440 -340 0
c-327 0 -341 -1 -360 -20 -19 -19 -20 -33 -20 -220 0 -187 1 -201 20 -220 20
-20 33 -20 780 -20 747 0 760 0 780 20 19 19 20 33 20 220 0 187 -1 201 -20
220 -19 19 -33 20 -360 20 l-340 0 0 1440 0 1440 120 0 120 0 0 -170 c0 -161
-1 -170 -21 -180 -60 -32 -80 -156 -36 -220 65 -97 209 -97 274 0 44 64 22
188 -38 220 -18 10 -19 24 -19 180 l0 170 180 0 c167 0 181 1 200 20 14 14 20
33 20 62 0 49 -225 1565 -240 1620 -6 21 -19 42 -30 48 -12 6 -230 10 -614 10
-572 0 -597 -1 -615 -19z m1208 -828 c57 -379 105 -703 108 -720 l6 -33 -703
0 -703 0 6 33 c3 17 51 341 108 720 l103 687 486 0 486 0 103 -687z m51 -4033
l0 -80 -640 0 -640 0 0 80 0 80 640 0 640 0 0 -80z"/>
</g>
</svg>
