<?xml version="1.0" standalone="no"?>
<!DOCTYPE svg PUBLIC "-//W3C//DTD SVG 20010904//EN"
 "http://www.w3.org/TR/2001/REC-SVG-20010904/DTD/svg10.dtd">
<svg version="1.0" xmlns="http://www.w3.org/2000/svg"
 width="512.000000pt" height="512.000000pt" viewBox="0 0 512.000000 512.000000"
 preserveAspectRatio="xMidYMid meet">
<metadata>
Created by potrace 1.16, written by Peter Selinger 2001-2019
</metadata>
<g transform="translate(0.000000,512.000000) scale(0.100000,-0.100000)"
fill="#000000" stroke="none">
<path d="M1431 4549 c-391 -77 -689 -413 -708 -800 l-6 -105 28 -22 c36 -28
67 -28 101 1 23 20 27 33 35 115 33 359 302 628 661 661 82 8 95 12 115 35 29
34 29 65 2 100 -19 24 -25 26 -102 25 -45 -1 -102 -5 -126 -10z"/>
<path d="M1445 4221 c-97 -28 -165 -69 -241 -145 -106 -105 -164 -237 -164
-370 0 -47 4 -61 25 -81 26 -27 51 -31 89 -14 30 14 43 45 50 123 14 167 176
328 343 343 77 6 108 19 122 49 16 36 14 58 -10 88 -19 24 -27 26 -87 25 -37
0 -94 -8 -127 -18z"/>
<path d="M1534 3906 c-51 -22 -112 -84 -128 -129 -9 -23 -43 -190 -77 -372
-64 -346 -68 -400 -35 -463 25 -49 87 -102 132 -114 41 -11 41 -12 33 -47 -17
-74 -11 -146 19 -202 39 -75 87 -106 195 -127 l87 -17 0 -148 c0 -140 -1 -149
-25 -185 -57 -87 -71 -200 -36 -292 l19 -50 -619 0 c-487 0 -620 3 -624 13 -2
6 -6 29 -10 49 -8 50 -61 117 -115 148 -40 22 -59 25 -170 28 -116 4 -127 2
-153 -18 l-27 -21 0 -680 c0 -666 0 -679 20 -699 18 -18 33 -20 148 -20 140 0
182 12 236 66 63 64 70 91 74 301 l4 192 652 3 651 3 57 27 c67 31 147 103
183 163 34 58 55 145 55 226 l0 66 44 17 c64 24 130 87 163 154 24 48 28 70
28 137 0 83 -11 124 -52 185 -20 31 -23 47 -23 137 0 84 3 103 15 103 8 0 510
-92 1116 -205 616 -115 1127 -205 1159 -205 81 0 154 39 194 104 26 41 37 87
82 329 29 155 65 347 80 425 l26 144 105 120 c99 115 104 123 101 161 -2 29
-10 45 -28 58 -18 13 -328 74 -1135 224 -610 113 -1375 255 -1699 315 -324 61
-612 110 -640 110 -28 -1 -65 -7 -82 -14z m1272 -361 c1748 -325 2079 -387
2081 -389 7 -7 -556 -645 -586 -663 -47 -30 -66 -29 -283 12 -1397 263 -1917
355 -1941 344 -48 -22 -60 -83 -24 -123 20 -22 48 -30 267 -70 304 -56 938
-174 1464 -272 219 -41 419 -74 445 -74 122 0 183 40 341 224 68 80 125 144
127 142 2 -1 -19 -123 -47 -271 -54 -294 -62 -315 -124 -315 -39 0 -2832 517
-2867 531 -40 16 -53 48 -45 112 l7 54 62 -13 c138 -30 189 -13 189 62 0 62
-18 71 -217 108 -161 30 -181 36 -202 60 -13 15 -23 34 -23 42 0 33 120 655
130 674 13 24 38 39 66 40 11 0 542 -97 1180 -215z m-795 -1156 l69 -12 0 -71
0 -71 -80 0 -80 0 0 83 c0 51 4 82 11 82 5 0 41 -5 80 -11z m55 -330 c76 -36
109 -117 79 -194 -25 -67 -73 -100 -146 -100 -96 0 -154 58 -154 153 0 70 28
115 89 143 53 24 80 24 132 -2z m-1781 -243 c13 -13 26 -39 30 -57 3 -19 5
-249 3 -511 l-3 -476 -24 -26 c-21 -22 -33 -26 -83 -26 l-58 0 0 560 0 560 55
0 c46 0 60 -4 80 -24z m1633 -288 c-3 -47 -13 -88 -26 -114 -26 -52 -94 -111
-141 -124 -22 -6 -277 -10 -653 -10 l-618 0 0 160 0 160 721 0 722 0 -5 -72z"/>
</g>
</svg>
