<?xml version="1.0" standalone="no"?>
<!DOCTYPE svg PUBLIC "-//W3C//DTD SVG 20010904//EN"
 "http://www.w3.org/TR/2001/REC-SVG-20010904/DTD/svg10.dtd">
<svg version="1.0" xmlns="http://www.w3.org/2000/svg"
 width="512.000000pt" height="512.000000pt" viewBox="0 0 512.000000 512.000000"
 preserveAspectRatio="xMidYMid meet">
<metadata>
Created by potrace 1.16, written by Peter Selinger 2001-2019
</metadata>
<g transform="translate(0.000000,512.000000) scale(0.100000,-0.100000)"
fill="#000000" stroke="none">
<path d="M1234 5101 c-59 -27 -109 -75 -138 -133 l-26 -52 0 -1748 c0 -1735 0
-1748 20 -1768 28 -28 90 -27 116 1 18 20 19 43 22 340 l3 319 382 0 382 0 29
-98 c48 -157 70 -192 143 -218 55 -19 731 -19 786 0 73 26 95 61 143 218 l29
98 383 0 382 0 0 -915 0 -915 -27 -30 c-17 -19 -44 -35 -68 -40 -52 -12 -2417
-13 -2469 0 -22 5 -51 20 -65 35 l-26 25 -5 460 c-5 452 -5 460 -26 481 -30
29 -92 29 -116 -1 -17 -21 -18 -55 -18 -489 l0 -467 26 -52 c29 -58 79 -106
138 -133 39 -18 98 -19 1327 -19 l1285 0 52 26 c58 29 106 79 133 138 18 39
19 103 19 1507 0 1395 -1 1468 -18 1489 -24 30 -86 30 -116 1 -21 -21 -21 -28
-24 -481 l-3 -460 -1329 0 -1330 0 0 1335 0 1335 28 30 c16 19 43 35 67 40 52
12 2417 13 2469 0 22 -5 51 -20 65 -35 l26 -25 5 -739 c5 -709 6 -740 24 -760
26 -28 88 -29 116 -1 20 20 20 33 20 768 0 705 -1 749 -19 788 -27 59 -75 109
-133 138 l-52 26 -1285 0 c-1229 0 -1288 -1 -1327 -19z m1697 -3123 l-28 -83
-343 0 -343 0 -28 83 -28 82 399 0 399 0 -28 -82z"/>
<path d="M1495 4786 c-37 -17 -80 -62 -94 -99 -8 -19 -11 -272 -11 -776 l0
-748 23 -44 c15 -27 38 -52 63 -66 l39 -23 1045 0 1045 0 39 23 c25 14 48 39
63 66 l23 44 0 749 c0 613 -2 754 -14 781 -16 39 -61 82 -99 96 -19 8 -275 11
-788 11 -746 0 -759 0 -779 -20 -28 -28 -27 -90 1 -116 20 -18 51 -19 768 -24
l746 -5 3 -77 3 -78 -1011 0 -1011 0 3 78 3 77 116 5 c122 5 143 13 160 57 10
28 -7 80 -31 93 -29 15 -269 12 -305 -4z m2075 -551 l0 -85 -1010 0 -1010 0 0
85 0 85 1010 0 1010 0 0 -85z m0 -320 l0 -85 -1010 0 -1010 0 0 85 0 85 1010
0 1010 0 0 -85z m0 -325 l0 -80 -1010 0 -1010 0 0 80 0 80 1010 0 1010 0 0
-80z m0 -320 l0 -80 -1010 0 -1010 0 0 80 0 80 1010 0 1010 0 0 -80z"/>
<path d="M1561 2842 c-59 -32 -71 -68 -71 -220 0 -143 6 -166 55 -212 26 -25
28 -25 240 -28 238 -3 259 1 295 61 17 28 20 51 20 177 0 126 -3 149 -20 177
-35 58 -57 63 -282 63 -178 0 -208 -2 -237 -18z m379 -222 l0 -80 -145 0 -145
0 0 80 0 80 145 0 145 0 0 -80z"/>
<path d="M2335 2851 c-28 -12 -62 -50 -74 -84 -6 -16 -11 -83 -11 -150 0 -139
12 -176 69 -214 33 -22 42 -23 241 -23 199 0 208 1 241 23 57 38 69 75 69 215
0 134 -9 170 -54 212 -27 25 -28 25 -244 27 -119 1 -226 -2 -237 -6z m375
-231 l0 -80 -150 0 -150 0 0 80 0 80 150 0 150 0 0 -80z"/>
<path d="M3079 2837 c-53 -36 -59 -56 -59 -217 0 -126 3 -149 20 -177 36 -60
57 -64 295 -61 l215 3 37 38 38 37 3 148 c2 128 0 151 -16 181 -35 65 -61 71
-293 71 -198 0 -207 -1 -240 -23z m391 -217 l0 -80 -145 0 -145 0 0 80 0 80
145 0 145 0 0 -80z"/>
</g>
</svg>
