<?xml version="1.0" standalone="no"?>
<!DOCTYPE svg PUBLIC "-//W3C//DTD SVG 20010904//EN"
 "http://www.w3.org/TR/2001/REC-SVG-20010904/DTD/svg10.dtd">
<svg version="1.0" xmlns="http://www.w3.org/2000/svg"
 width="512.000000pt" height="512.000000pt" viewBox="0 0 512.000000 512.000000"
 preserveAspectRatio="xMidYMid meet">
<metadata>
Created by potrace 1.16, written by Peter Selinger 2001-2019
</metadata>
<g transform="translate(0.000000,512.000000) scale(0.100000,-0.100000)"
fill="#000000" stroke="none">
<path d="M2404 4980 c-235 -20 -461 -85 -684 -197 -367 -185 -645 -467 -825
-838 -94 -193 -147 -371 -176 -590 -17 -132 -6 -453 20 -579 149 -720 663
-1259 1379 -1446 l42 -11 0 -243 0 -244 -138 -4 c-137 -3 -139 -3 -214 -41
-123 -60 -204 -168 -229 -301 -6 -32 -9 -117 -7 -187 2 -107 6 -131 21 -146
17 -17 70 -18 967 -18 897 0 950 1 967 18 26 26 31 249 8 352 -29 130 -110
230 -235 289 -61 29 -73 31 -202 34 l-138 4 0 244 0 243 43 11 c182 46 409
145 565 246 418 271 701 685 808 1182 31 143 44 451 25 597 -28 209 -81 392
-165 570 -289 607 -859 999 -1535 1055 -128 11 -164 11 -297 0z m317 -151
c588 -60 1099 -411 1363 -937 322 -642 206 -1414 -291 -1932 -332 -347 -758
-530 -1233 -530 -475 0 -901 183 -1233 530 -547 571 -626 1438 -193 2105 341
525 970 827 1587 764z m99 -3764 l0 -235 -260 0 -260 0 0 229 0 229 188 -5
c146 -4 306 4 330 16 1 0 2 -105 2 -234z m424 -409 c102 -51 148 -134 154
-279 l4 -97 -842 0 -843 0 5 103 c7 156 58 236 183 284 22 9 195 11 665 10
606 -2 637 -3 674 -21z"/>
<path d="M2359 4520 c-69 -37 -119 -115 -119 -189 0 -13 14 -67 30 -119 58
-181 86 -382 74 -533 l-6 -87 -55 -38 c-71 -49 -126 -113 -165 -191 l-31 -63
-62 0 c-135 0 -289 -42 -462 -127 -143 -69 -209 -128 -258 -226 -68 -140 -68
-286 -2 -418 130 -257 198 -316 337 -288 52 11 61 18 180 138 134 135 245 219
381 290 l85 45 65 -27 c95 -39 142 -48 230 -46 l80 2 41 -64 c91 -141 334
-347 478 -406 166 -67 361 -25 489 106 59 59 173 248 192 316 22 77 -14 174
-80 219 -22 16 -74 33 -135 46 -180 39 -361 114 -508 211 -65 42 -68 45 -68
84 0 88 -41 209 -96 282 l-24 31 44 94 c76 163 112 348 104 539 -4 99 -7 114
-41 181 -40 83 -114 162 -186 202 -82 44 -150 56 -321 56 -133 -1 -160 -4
-191 -20z m430 -165 c68 -38 125 -103 147 -167 24 -73 15 -268 -19 -398 -27
-102 -76 -216 -92 -213 -6 1 -39 14 -75 29 -50 21 -87 28 -161 32 l-96 5 -1
128 c-1 182 -28 343 -84 506 -20 59 -20 63 -4 88 l18 27 156 -4 c152 -3 159
-4 211 -33z m-61 -905 c74 -39 125 -92 161 -169 22 -47 26 -70 26 -141 0 -76
-4 -93 -33 -152 -38 -77 -92 -130 -171 -167 -47 -22 -70 -26 -146 -26 -78 0
-98 4 -145 27 -244 120 -275 442 -58 602 70 51 123 67 218 63 74 -3 93 -7 148
-37z m-658 -344 c0 -68 30 -167 70 -230 17 -26 30 -49 28 -51 -2 -1 -30 -17
-63 -35 -134 -75 -244 -158 -369 -282 -70 -71 -133 -128 -140 -128 -27 0 -58
36 -114 137 -70 126 -87 178 -78 251 14 115 75 193 203 260 139 72 279 113
451 131 8 1 12 -16 12 -53z m1155 -258 c109 -55 243 -102 367 -129 156 -34
157 -41 46 -226 -59 -98 -93 -135 -162 -171 -43 -22 -64 -27 -131 -27 -67 0
-88 5 -130 27 -132 70 -301 215 -375 322 l-33 50 24 15 c49 30 156 147 180
197 l24 50 50 -32 c28 -17 91 -52 140 -76z"/>
</g>
</svg>
