<?xml version="1.0" standalone="no"?>
<!DOCTYPE svg PUBLIC "-//W3C//DTD SVG 20010904//EN"
 "http://www.w3.org/TR/2001/REC-SVG-20010904/DTD/svg10.dtd">
<svg version="1.0" xmlns="http://www.w3.org/2000/svg"
 width="512.000000pt" height="512.000000pt" viewBox="0 0 512.000000 512.000000"
 preserveAspectRatio="xMidYMid meet">
<metadata>
Created by potrace 1.16, written by Peter Selinger 2001-2019
</metadata>
<g transform="translate(0.000000,512.000000) scale(0.100000,-0.100000)"
fill="#000000" stroke="none">
<path d="M285 5101 c-108 -39 -199 -121 -251 -226 l-29 -60 0 -2255 0 -2255
29 -60 c41 -83 122 -165 204 -206 l67 -34 2255 0 2255 0 67 34 c82 41 163 123
204 206 l29 60 0 2255 0 2255 -34 67 c-41 82 -123 163 -206 204 l-60 29 -2240
2 c-2142 2 -2242 2 -2290 -16z m4503 -176 c49 -21 110 -80 133 -130 18 -39 19
-117 19 -2235 0 -2102 -1 -2197 -19 -2235 -21 -46 -88 -111 -137 -131 -28 -12
-367 -14 -2226 -14 -2100 0 -2195 1 -2233 19 -46 21 -111 88 -131 137 -12 28
-14 367 -14 2224 0 2434 -6 2226 68 2304 20 21 55 47 77 57 39 18 117 19 2233
19 1957 0 2197 -2 2230 -15z"/>
<path d="M655 4586 c-60 -28 -97 -66 -124 -126 -20 -45 -21 -55 -21 -1900 l0
-1855 24 -50 c28 -60 66 -97 126 -124 45 -20 55 -21 1900 -21 1774 0 1857 1
1895 19 61 28 105 70 131 126 l24 50 0 1855 c0 1845 -1 1855 -21 1900 -27 60
-64 98 -124 126 l-50 24 -1855 0 -1855 0 -50 -24z m3750 -181 l25 -24 0 -1821
0 -1821 -25 -24 -24 -25 -1821 0 -1821 0 -24 25 -25 24 0 1821 0 1821 25 24
24 25 1821 0 1821 0 24 -25z"/>
<path d="M2421 4010 c-103 -22 -179 -99 -201 -206 -7 -34 -10 -181 -8 -426 l3
-373 27 -51 c57 -109 135 -144 318 -144 183 0 261 35 318 144 l27 51 0 405 0
405 -28 57 c-29 59 -71 98 -135 125 -44 19 -253 27 -321 13z m242 -181 c65
-18 67 -30 67 -414 0 -367 -4 -396 -55 -415 -15 -6 -66 -10 -115 -10 -49 0
-100 4 -115 10 -51 19 -55 48 -55 415 0 378 3 397 62 414 45 13 165 13 211 0z"/>
<path d="M1139 1793 c-55 -9 -133 -66 -166 -122 -38 -64 -47 -123 -41 -264 7
-153 51 -232 158 -281 43 -20 60 -21 445 -21 l400 0 58 29 c67 32 119 95 136
163 16 63 14 260 -4 319 -19 63 -71 125 -132 155 -48 24 -49 24 -438 25 -214
1 -402 0 -416 -3z m793 -201 c20 -20 23 -34 26 -123 5 -119 -7 -155 -54 -175
-42 -18 -666 -20 -727 -3 -30 8 -42 18 -53 44 -17 41 -19 178 -3 224 21 60 26
61 426 58 362 -2 362 -2 385 -25z"/>
<path d="M3168 1786 c-84 -23 -148 -87 -174 -173 -17 -55 -19 -260 -4 -315 19
-68 70 -130 134 -163 l60 -30 400 0 c386 0 403 1 446 21 58 26 108 76 134 134
18 39 21 64 21 195 0 127 -3 155 -19 185 -34 64 -63 95 -117 125 l-54 30 -390
2 c-293 2 -402 -1 -437 -11z m791 -181 c38 -19 51 -60 51 -157 0 -105 -16
-143 -67 -157 -53 -15 -679 -15 -722 0 -47 17 -61 53 -61 161 0 102 11 135 50
155 39 20 711 18 749 -2z"/>
</g>
</svg>
