<?xml version="1.0" standalone="no"?>
<!DOCTYPE svg PUBLIC "-//W3C//DTD SVG 20010904//EN"
 "http://www.w3.org/TR/2001/REC-SVG-20010904/DTD/svg10.dtd">
<svg version="1.0" xmlns="http://www.w3.org/2000/svg"
 width="512.000000pt" height="512.000000pt" viewBox="0 0 512.000000 512.000000"
 preserveAspectRatio="xMidYMid meet">
<metadata>
Created by potrace 1.16, written by Peter Selinger 2001-2019
</metadata>
<g transform="translate(0.000000,512.000000) scale(0.100000,-0.100000)"
fill="#000000" stroke="none">
<path d="M272 5019 c-71 -28 -144 -101 -171 -174 l-21 -56 0 -2229 0 -2229 21
-56 c28 -74 100 -146 174 -174 l56 -21 2229 0 2229 0 56 21 c36 13 73 38 105
69 31 32 56 69 69 105 l21 56 0 2229 0 2229 -21 56 c-28 74 -100 146 -174 174
l-56 21 -2232 -1 c-2219 0 -2232 0 -2285 -20z m4472 -149 c49 -11 85 -37 111
-81 20 -34 20 -52 20 -2229 0 -2177 0 -2195 -20 -2229 -26 -44 -62 -70 -111
-81 -52 -13 -4316 -13 -4368 0 -49 11 -85 37 -111 81 -20 34 -20 52 -20 2229
0 2177 0 2195 20 2229 25 42 62 71 106 81 48 11 4325 12 4373 0z"/>
<path d="M400 4640 l0 -80 80 0 80 0 0 80 0 80 -80 0 -80 0 0 -80z"/>
<path d="M1220 4701 c-205 -45 -363 -132 -516 -285 -156 -156 -242 -314 -286
-526 -29 -138 -21 -367 16 -493 55 -186 143 -332 278 -463 132 -129 265 -206
445 -260 126 -37 355 -45 493 -16 212 44 370 130 526 286 156 156 242 314 286
526 29 138 21 367 -16 493 -54 180 -131 313 -260 445 -131 135 -277 222 -463
278 -121 36 -373 44 -503 15z m325 -155 c33 -3 77 -10 98 -16 l37 -11 0 -59 0
-60 -240 0 -240 0 0 60 0 59 43 12 c48 13 179 27 217 23 14 -2 52 -5 85 -8z
m-505 -386 l0 -80 -185 0 c-102 0 -185 3 -185 6 0 10 41 75 73 117 l29 37 134
0 134 0 0 -80z m640 0 l0 -80 -240 0 -240 0 0 80 0 80 240 0 240 0 0 -80z
m457 43 c32 -42 73 -107 73 -117 0 -3 -83 -6 -185 -6 l-185 0 0 80 0 80 134 0
134 0 29 -37z m-1097 -363 l0 -80 -236 0 -236 0 7 43 c4 23 11 59 16 80 l10
37 219 0 220 0 0 -80z m640 0 l0 -80 -240 0 -240 0 0 80 0 80 240 0 240 0 0
-80z m609 43 c5 -21 12 -57 16 -80 l7 -43 -236 0 -236 0 0 80 0 80 220 0 219
0 10 -37z m-1249 -363 l0 -80 -220 0 -219 0 -10 38 c-5 20 -12 56 -16 80 l-7
42 236 0 236 0 0 -80z m640 0 l0 -80 -240 0 -240 0 0 80 0 80 240 0 240 0 0
-80z m625 38 c-4 -24 -11 -60 -16 -80 l-10 -38 -219 0 -220 0 0 80 0 80 236 0
236 0 -7 -42z m-1265 -358 l0 -80 -134 0 -134 0 -29 38 c-32 41 -73 106 -73
116 0 3 83 6 185 6 l185 0 0 -80z m640 0 l0 -80 -240 0 -240 0 0 80 0 80 240
0 240 0 0 -80z m530 74 c0 -10 -41 -75 -73 -116 l-29 -38 -134 0 -134 0 0 80
0 80 185 0 c102 0 185 -3 185 -6z m-530 -374 l0 -59 -42 -13 c-27 -8 -100 -13
-198 -13 -98 0 -171 5 -197 13 l-43 13 0 59 0 60 240 0 240 0 0 -60z"/>
<path d="M3460 4701 c-205 -45 -363 -132 -516 -285 -156 -156 -242 -314 -286
-526 -29 -138 -21 -367 16 -493 55 -186 143 -332 278 -463 132 -129 265 -206
445 -260 126 -37 355 -45 493 -16 212 44 370 130 526 286 156 156 242 314 286
526 29 138 21 367 -16 493 -54 180 -131 313 -260 445 -131 135 -277 222 -463
278 -121 36 -373 44 -503 15z m325 -155 c33 -3 77 -10 98 -16 l37 -11 0 -59 0
-60 -240 0 -240 0 0 60 0 59 43 12 c48 13 179 27 217 23 14 -2 52 -5 85 -8z
m-505 -386 l0 -80 -185 0 c-102 0 -185 3 -185 6 0 10 41 75 73 117 l29 37 134
0 134 0 0 -80z m640 0 l0 -80 -240 0 -240 0 0 80 0 80 240 0 240 0 0 -80z
m457 43 c32 -42 73 -107 73 -117 0 -3 -83 -6 -185 -6 l-185 0 0 80 0 80 134 0
134 0 29 -37z m-1097 -363 l0 -80 -236 0 -236 0 7 43 c4 23 11 59 16 80 l10
37 219 0 220 0 0 -80z m640 0 l0 -80 -240 0 -240 0 0 80 0 80 240 0 240 0 0
-80z m609 43 c5 -21 12 -57 16 -80 l7 -43 -236 0 -236 0 0 80 0 80 220 0 219
0 10 -37z m-1249 -363 l0 -80 -220 0 -219 0 -10 38 c-5 20 -12 56 -16 80 l-7
42 236 0 236 0 0 -80z m640 0 l0 -80 -240 0 -240 0 0 80 0 80 240 0 240 0 0
-80z m625 38 c-4 -24 -11 -60 -16 -80 l-10 -38 -219 0 -220 0 0 80 0 80 236 0
236 0 -7 -42z m-1265 -358 l0 -80 -134 0 -134 0 -29 38 c-32 41 -73 106 -73
116 0 3 83 6 185 6 l185 0 0 -80z m640 0 l0 -80 -240 0 -240 0 0 80 0 80 240
0 240 0 0 -80z m530 74 c0 -10 -41 -75 -73 -116 l-29 -38 -134 0 -134 0 0 80
0 80 185 0 c102 0 185 -3 185 -6z m-530 -374 l0 -59 -42 -13 c-27 -8 -100 -13
-198 -13 -98 0 -171 5 -197 13 l-43 13 0 59 0 60 240 0 240 0 0 -60z"/>
<path d="M4560 4640 l0 -80 80 0 80 0 0 80 0 80 -80 0 -80 0 0 -80z"/>
<path d="M1220 2461 c-205 -45 -363 -132 -516 -285 -156 -156 -242 -314 -286
-526 -29 -138 -21 -367 16 -493 55 -186 143 -332 278 -463 132 -129 265 -206
445 -260 126 -37 355 -45 493 -16 212 44 370 130 526 286 156 156 242 314 286
526 29 138 21 367 -16 493 -54 180 -131 313 -260 445 -131 135 -277 222 -463
278 -121 36 -373 44 -503 15z m325 -155 c33 -3 77 -10 98 -16 l37 -11 0 -59 0
-60 -240 0 -240 0 0 60 0 59 43 12 c48 13 179 27 217 23 14 -2 52 -5 85 -8z
m-505 -386 l0 -80 -185 0 c-102 0 -185 3 -185 6 0 10 41 75 73 117 l29 37 134
0 134 0 0 -80z m640 0 l0 -80 -240 0 -240 0 0 80 0 80 240 0 240 0 0 -80z
m457 43 c32 -42 73 -107 73 -117 0 -3 -83 -6 -185 -6 l-185 0 0 80 0 80 134 0
134 0 29 -37z m-1097 -363 l0 -80 -236 0 -236 0 7 43 c4 23 11 59 16 80 l10
37 219 0 220 0 0 -80z m640 0 l0 -80 -240 0 -240 0 0 80 0 80 240 0 240 0 0
-80z m609 43 c5 -21 12 -57 16 -80 l7 -43 -236 0 -236 0 0 80 0 80 220 0 219
0 10 -37z m-1249 -363 l0 -80 -220 0 -219 0 -10 38 c-5 20 -12 56 -16 80 l-7
42 236 0 236 0 0 -80z m640 0 l0 -80 -240 0 -240 0 0 80 0 80 240 0 240 0 0
-80z m625 38 c-4 -24 -11 -60 -16 -80 l-10 -38 -219 0 -220 0 0 80 0 80 236 0
236 0 -7 -42z m-1265 -358 l0 -80 -134 0 -134 0 -29 38 c-32 41 -73 106 -73
116 0 3 83 6 185 6 l185 0 0 -80z m640 0 l0 -80 -240 0 -240 0 0 80 0 80 240
0 240 0 0 -80z m530 74 c0 -10 -41 -75 -73 -116 l-29 -38 -134 0 -134 0 0 80
0 80 185 0 c102 0 185 -3 185 -6z m-530 -374 l0 -59 -42 -13 c-58 -17 -338
-17 -395 0 l-43 13 0 59 0 60 240 0 240 0 0 -60z"/>
<path d="M3460 2461 c-205 -45 -363 -132 -516 -285 -156 -156 -242 -314 -286
-526 -29 -138 -21 -367 16 -493 55 -186 143 -332 278 -463 132 -129 265 -206
445 -260 126 -37 355 -45 493 -16 212 44 370 130 526 286 156 156 242 314 286
526 29 138 21 367 -16 493 -54 180 -131 313 -260 445 -131 135 -277 222 -463
278 -121 36 -373 44 -503 15z m325 -155 c33 -3 77 -10 98 -16 l37 -11 0 -59 0
-60 -240 0 -240 0 0 60 0 59 43 12 c48 13 179 27 217 23 14 -2 52 -5 85 -8z
m-505 -386 l0 -80 -185 0 c-102 0 -185 3 -185 6 0 10 41 75 73 117 l29 37 134
0 134 0 0 -80z m640 0 l0 -80 -240 0 -240 0 0 80 0 80 240 0 240 0 0 -80z
m457 43 c32 -42 73 -107 73 -117 0 -3 -83 -6 -185 -6 l-185 0 0 80 0 80 134 0
134 0 29 -37z m-1097 -363 l0 -80 -236 0 -236 0 7 43 c4 23 11 59 16 80 l10
37 219 0 220 0 0 -80z m640 0 l0 -80 -240 0 -240 0 0 80 0 80 240 0 240 0 0
-80z m609 43 c5 -21 12 -57 16 -80 l7 -43 -236 0 -236 0 0 80 0 80 220 0 219
0 10 -37z m-1249 -363 l0 -80 -220 0 -219 0 -10 38 c-5 20 -12 56 -16 80 l-7
42 236 0 236 0 0 -80z m640 0 l0 -80 -240 0 -240 0 0 80 0 80 240 0 240 0 0
-80z m625 38 c-4 -24 -11 -60 -16 -80 l-10 -38 -219 0 -220 0 0 80 0 80 236 0
236 0 -7 -42z m-1265 -358 l0 -80 -134 0 -134 0 -29 38 c-32 41 -73 106 -73
116 0 3 83 6 185 6 l185 0 0 -80z m640 0 l0 -80 -240 0 -240 0 0 80 0 80 240
0 240 0 0 -80z m530 74 c0 -10 -41 -75 -73 -116 l-29 -38 -134 0 -134 0 0 80
0 80 185 0 c102 0 185 -3 185 -6z m-530 -374 l0 -59 -42 -13 c-58 -17 -338
-17 -395 0 l-43 13 0 59 0 60 240 0 240 0 0 -60z"/>
<path d="M400 480 l0 -80 80 0 80 0 0 80 0 80 -80 0 -80 0 0 -80z"/>
<path d="M4560 480 l0 -80 80 0 80 0 0 80 0 80 -80 0 -80 0 0 -80z"/>
</g>
</svg>
